<svg width="12" height="12" viewBox="0 0 12 12" fill="none" xmlns="http://www.w3.org/2000/svg">
<path d="M6.00589 0.179962C6.21514 0.179962 6.40619 0.298173 6.49717 0.486855L8.05741 3.699L11.5418 4.21276C11.7465 4.24231 11.9171 4.38553 11.9808 4.58331C12.0445 4.78108 11.9921 4.99477 11.8466 5.14026L9.31971 7.64541L9.91561 11.1826C9.94972 11.3872 9.86557 11.5941 9.69499 11.7169C9.52441 11.8396 9.30152 11.8533 9.11956 11.7555L6.00362 10.0915L2.89222 11.7532C2.708 11.851 2.4851 11.8373 2.3168 11.7146C2.14849 11.5918 2.06206 11.385 2.09618 11.1804L2.69208 7.64314L0.165204 5.14026C0.017367 4.99477 -0.03267 4.77881 0.0310135 4.58331C0.0946971 4.3878 0.265278 4.24459 0.469975 4.21276L3.95437 3.699L5.51462 0.486855C5.60787 0.298173 5.79665 0.179962 6.00589 0.179962ZM6.00589 1.97585L4.81183 4.43554C4.73222 4.59695 4.57984 4.71061 4.40016 4.73789L1.70953 5.13344L3.66325 7.068C3.78834 7.19303 3.84748 7.37035 3.81791 7.54539L3.3562 10.2665L5.74889 8.98892C5.91037 8.90254 6.10369 8.90254 6.2629 8.98892L8.65558 10.2665L8.19615 7.54766C8.16658 7.37262 8.22344 7.1953 8.35081 7.07027L10.3045 5.13571L7.6139 4.73789C7.4365 4.71061 7.28184 4.59922 7.20223 4.43554L6.00589 1.97585Z" fill="#EBBE34"/>
</svg>
