<svg width="12" height="12" viewBox="0 0 12 12" fill="none" xmlns="http://www.w3.org/2000/svg">
<path d="M6.65483 0.589223C6.53435 0.339175 6.27976 0.180054 6.00016 0.180054C5.72056 0.180054 5.46824 0.339175 5.34549 0.589223L3.88384 3.59662L0.619583 4.07853C0.346804 4.11944 0.119488 4.31039 0.0353805 4.5718C-0.0487265 4.83322 0.0194683 5.12191 0.21496 5.31513L2.5836 7.65876L2.0244 10.9708C1.97893 11.2435 2.09259 11.5209 2.31764 11.6823C2.54268 11.8436 2.84046 11.8641 3.08596 11.7345L6.00243 10.1774L8.9189 11.7345C9.1644 11.8641 9.46218 11.8459 9.68723 11.6823C9.91227 11.5186 10.0259 11.2435 9.98047 10.9708L9.41899 7.65876L11.7876 5.31513C11.9831 5.12191 12.0536 4.83322 11.9672 4.5718C11.8808 4.31039 11.6558 4.11944 11.383 4.07853L8.11647 3.59662L6.65483 0.589223Z" fill="#EBBE34"/>
</svg>
